<?xml version="1.0" encoding="UTF-8"?>
<svg width="95px" height="95px" viewBox="0 0 95 95" version="1.1" xmlns="http://www.w3.org/2000/svg" xmlns:xlink="http://www.w3.org/1999/xlink">
    <title>Group 11 Copy备份 2</title>
    <defs>
        <circle id="path-1" cx="47.5" cy="47.5" r="47.5"></circle>
        <path d="M61.624,0 C63.9568508,0 65.848,1.89114922 65.848,4.224 C65.848,6.55685078 63.9568508,8.448 61.624,8.448 C61.5011907,8.448 61.3786146,8.44899829 61.2562793,8.45098719 C66.9723503,13.2922913 70.6,20.5225042 70.6,28.6 L70.6,46.2 C70.6,70.500529 50.900529,90.2 26.6,90.2 L0.2,90.2 L0.2,28.6 C0.2,20.5272075 3.82342635,13.3007116 9.53264501,8.45814624 C9.29763547,8.45172576 9.06125284,8.448 8.824,8.448 C6.49114922,8.448 4.6,6.55685078 4.6,4.224 C4.6,1.89114922 6.49114922,0 8.824,0 C13.3169013,0 17.5838222,0.967537092 21.4277717,2.70562033 C23.1003638,2.3742203 24.8298362,2.2 26.6,2.2 L44.2,2.2 C45.8832362,2.2 47.5296793,2.35752952 49.125391,2.65865005 C52.9419183,0.949993718 57.1720177,0 61.624,0 Z" id="path-3"></path>
    </defs>
    <g id="图片" stroke="none" stroke-width="1" fill="none" fill-rule="evenodd">
        <g id="Group-11-Copy备份-2">
            <mask id="mask-2" fill="white">
                <use xlink:href="#path-1"></use>
            </mask>
            <use id="Mask" fill="#E2E4F4" xlink:href="#path-1"></use>
            <g id="编组备份-7" mask="url(#mask-2)">
                <g transform="translate(11.000000, 37.000000)">
                    <g id="蒙版" stroke-width="1" fill="none" fill-rule="evenodd" transform="translate(2.000000, 0.000000)">
                        <mask id="mask-4" fill="white">
                            <use xlink:href="#path-3"></use>
                        </mask>
                        <use fill="#AFA6EB" xlink:href="#path-3"></use>
                        <path d="M61.624,3 C63.9568508,3 65.848,4.89114922 65.848,7.224 C65.848,9.55685078 63.9568508,11.448 61.624,11.448 C61.5011907,11.448 61.3786146,11.4489983 61.2562793,11.4509872 C66.9723503,16.2922913 70.6,23.5225042 70.6,31.6 L70.6,49.2 C70.6,73.500529 50.900529,93.2 26.6,93.2 L0.2,93.2 L0.2,31.6 C0.2,23.5272075 3.82342635,16.3007116 9.53264501,11.4581462 C9.29763547,11.4517258 9.06125284,11.448 8.824,11.448 C6.49114922,11.448 4.6,9.55685078 4.6,7.224 C4.6,4.89114922 6.49114922,3 8.824,3 C13.3169013,3 17.5838222,3.96753709 21.4277717,5.70562033 C23.1003638,5.3742203 24.8298362,5.2 26.6,5.2 L44.2,5.2 C45.8832362,5.2 47.5296793,5.35752952 49.125391,5.65865005 C52.9419183,3.94999372 57.1720177,3 61.624,3 Z" fill="#8F86C9" mask="url(#mask-4)"></path>
                    </g>
                    <g id="编组-12" stroke-width="1" fill="none" fill-rule="evenodd" transform="translate(2.200000, 4.000000)">
                        <g transform="translate(4.400000, -4.000000)"></g>
                    </g>
                    <path d="M55,9.9 C65.3277248,9.9 73.7,18.2722752 73.7,28.6 C73.7,38.9277248 65.3277248,47.3 55,47.3 C50.06875,47.3 45.5833117,45.3912537 42.2422024,42.2722786 L37.4027699,48.4 L32.5542259,42.2753934 C29.2137016,45.3925244 24.7296082,47.3 19.8,47.3 C9.47227518,47.3 1.1,38.9277248 1.1,28.6 C1.1,18.2722752 9.47227518,9.9 19.8,9.9 C27.9049442,9.9 34.805581,15.0562533 37.4005205,22.26737 C39.994419,15.0562533 46.8950558,9.9 55,9.9 Z" id="形状结合" fill="#EBE8FF" fill-rule="evenodd"></path>
                    <g id="编组-3" stroke-width="1" fill="none" fill-rule="evenodd" transform="translate(32.000000, 36.000000)">
                        <polygon id="Triangle" fill="#FF8CA3" points="5.48244563 0.905261563 10.5167656 6.5 0.448125687 6.5"></polygon>
                        <polygon id="Triangle-Copy-2" fill="#9E466B" transform="translate(5.482446, 9.797369) rotate(-180.000000) translate(-5.482446, -9.797369) " points="5.48244563 6.5 10.5167656 13.0947384 0.448125687 13.0947384"></polygon>
                    </g>
                    <path d="M19.8,16.5 C26.4826455,16.5 31.9,21.9173545 31.9,28.6 C31.9,35.2826455 26.4826455,40.7 19.8,40.7 C13.1173545,40.7 7.7,35.2826455 7.7,28.6 C7.7,21.9173545 13.1173545,16.5 19.8,16.5 Z" id="椭圆形备份-2" fill="#51527A" fill-rule="evenodd"></path>
                    <path d="M55,16.5 C61.6826455,16.5 67.1,21.9173545 67.1,28.6 C67.1,35.2826455 61.6826455,40.7 55,40.7 C48.3173545,40.7 42.9,35.2826455 42.9,28.6 C42.9,21.9173545 48.3173545,16.5 55,16.5 Z" id="椭圆形备份-17" fill="#51527A" fill-rule="evenodd"></path>
                    <path d="M20.168,25.5813512 C21.9176381,25.5813512 23.336,24.1629893 23.336,22.4133512 C23.336,20.6637131 21.9176381,19.2453512 20.168,19.2453512 C18.4183619,19.2453512 17,20.6637131 17,22.4133512 C17,24.1629893 18.4183619,25.5813512 20.168,25.5813512 Z" id="椭圆形" fill="#FFFFFF" fill-rule="evenodd"></path>
                    <path d="M55.368,25.336 C57.1176381,25.336 58.536,23.9176381 58.536,22.168 C58.536,20.4183619 57.1176381,19 55.368,19 C53.6183619,19 52.2,20.4183619 52.2,22.168 C52.2,23.9176381 53.6183619,25.336 55.368,25.336 Z" id="椭圆形备份-14" fill="#FFFFFF" fill-rule="evenodd"></path>
                    <path d="M0.908361279,53.8418225 L2.14219605,47.3581775 L2.71943624,47.4680261 C15.9737,49.9903066 24.6293537,62.3175429 21.9351589,75.0409282 C19.9667219,84.3369086 12.3364728,91.5284646 2.67588902,93.3481347 L2.05653363,93.4569569 L0.994023701,86.9430431 C8.30190995,85.7510252 14.0416257,80.4585457 15.4783294,73.6736854 C17.3556997,64.807769 11.4014049,56.117951 2.01080863,54.0591839 L1.48560146,53.951671 L0.908361279,53.8418225 Z" id="路径-4" fill="#FFFFFF" fill-rule="nonzero"></path>
                </g>
            </g>
        </g>
    </g>
</svg>